<mxfile host="app.diagrams.net" modified="2023-04-02T13:11:00.696Z" agent="Mozilla/5.0 (Windows NT 10.0; Win64; x64) AppleWebKit/537.36 (KHTML, like Gecko) Chrome/110.0.0.0 Safari/537.36" etag="Gfn1xn6PdCiE-MygszAH" version="21.1.2" type="github">
  <diagram name="ページ1" id="lORX7LnmOU-Tjzqnr_Cn">
    <mxGraphModel dx="2039" dy="1135" grid="1" gridSize="10" guides="1" tooltips="1" connect="1" arrows="1" fold="1" page="1" pageScale="1" pageWidth="827" pageHeight="1169" math="0" shadow="0">
      <root>
        <mxCell id="0" />
        <mxCell id="1" parent="0" />
        <mxCell id="IowvCCKO8djH2YIr_tiV-1" value="AWS Cloud" style="points=[[0,0],[0.25,0],[0.5,0],[0.75,0],[1,0],[1,0.25],[1,0.5],[1,0.75],[1,1],[0.75,1],[0.5,1],[0.25,1],[0,1],[0,0.75],[0,0.5],[0,0.25]];outlineConnect=0;gradientColor=none;html=1;whiteSpace=wrap;fontSize=12;fontStyle=0;container=1;pointerEvents=0;collapsible=0;recursiveResize=0;shape=mxgraph.aws4.group;grIcon=mxgraph.aws4.group_aws_cloud_alt;strokeColor=#232F3E;fillColor=none;verticalAlign=top;align=left;spacingLeft=30;fontColor=#232F3E;dashed=0;" vertex="1" parent="1">
          <mxGeometry x="400" y="280" width="750" height="610" as="geometry" />
        </mxCell>
        <mxCell id="IowvCCKO8djH2YIr_tiV-19" value="" style="edgeStyle=orthogonalEdgeStyle;rounded=0;orthogonalLoop=1;jettySize=auto;html=1;" edge="1" parent="IowvCCKO8djH2YIr_tiV-1" source="IowvCCKO8djH2YIr_tiV-6" target="IowvCCKO8djH2YIr_tiV-7">
          <mxGeometry relative="1" as="geometry">
            <mxPoint x="165" y="289" as="targetPoint" />
          </mxGeometry>
        </mxCell>
        <mxCell id="IowvCCKO8djH2YIr_tiV-4" value="" style="sketch=0;points=[[0,0,0],[0.25,0,0],[0.5,0,0],[0.75,0,0],[1,0,0],[0,1,0],[0.25,1,0],[0.5,1,0],[0.75,1,0],[1,1,0],[0,0.25,0],[0,0.5,0],[0,0.75,0],[1,0.25,0],[1,0.5,0],[1,0.75,0]];outlineConnect=0;fontColor=#232F3E;gradientColor=#F78E04;gradientDirection=north;fillColor=#D05C17;strokeColor=#ffffff;dashed=0;verticalLabelPosition=bottom;verticalAlign=top;align=center;html=1;fontSize=12;fontStyle=0;aspect=fixed;shape=mxgraph.aws4.resourceIcon;resIcon=mxgraph.aws4.ecr;" vertex="1" parent="IowvCCKO8djH2YIr_tiV-1">
          <mxGeometry x="61" y="250" width="78" height="78" as="geometry" />
        </mxCell>
        <mxCell id="IowvCCKO8djH2YIr_tiV-5" value="" style="sketch=0;points=[[0,0,0],[0.25,0,0],[0.5,0,0],[0.75,0,0],[1,0,0],[0,1,0],[0.25,1,0],[0.5,1,0],[0.75,1,0],[1,1,0],[0,0.25,0],[0,0.5,0],[0,0.75,0],[1,0.25,0],[1,0.5,0],[1,0.75,0]];outlineConnect=0;fontColor=#232F3E;gradientColor=#F78E04;gradientDirection=north;fillColor=#D05C17;strokeColor=#ffffff;dashed=0;verticalLabelPosition=bottom;verticalAlign=top;align=center;html=1;fontSize=12;fontStyle=0;aspect=fixed;shape=mxgraph.aws4.resourceIcon;resIcon=mxgraph.aws4.fargate;" vertex="1" parent="IowvCCKO8djH2YIr_tiV-1">
          <mxGeometry x="611" y="250" width="78" height="78" as="geometry" />
        </mxCell>
        <mxCell id="IowvCCKO8djH2YIr_tiV-7" value="" style="sketch=0;points=[[0,0,0],[0.25,0,0],[0.5,0,0],[0.75,0,0],[1,0,0],[0,1,0],[0.25,1,0],[0.5,1,0],[0.75,1,0],[1,1,0],[0,0.25,0],[0,0.5,0],[0,0.75,0],[1,0.25,0],[1,0.5,0],[1,0.75,0]];outlineConnect=0;fontColor=#232F3E;gradientColor=#F78E04;gradientDirection=north;fillColor=#D05C17;strokeColor=#ffffff;dashed=0;verticalLabelPosition=bottom;verticalAlign=top;align=center;html=1;fontSize=12;fontStyle=0;aspect=fixed;shape=mxgraph.aws4.resourceIcon;resIcon=mxgraph.aws4.ecs;" vertex="1" parent="IowvCCKO8djH2YIr_tiV-1">
          <mxGeometry x="391" y="250" width="78" height="78" as="geometry" />
        </mxCell>
        <mxCell id="IowvCCKO8djH2YIr_tiV-9" value="" style="sketch=0;points=[[0,0,0],[0.25,0,0],[0.5,0,0],[0.75,0,0],[1,0,0],[0,1,0],[0.25,1,0],[0.5,1,0],[0.75,1,0],[1,1,0],[0,0.25,0],[0,0.5,0],[0,0.75,0],[1,0.25,0],[1,0.5,0],[1,0.75,0]];outlineConnect=0;fontColor=#232F3E;gradientColor=#60A337;gradientDirection=north;fillColor=#277116;strokeColor=#ffffff;dashed=0;verticalLabelPosition=bottom;verticalAlign=top;align=center;html=1;fontSize=12;fontStyle=0;aspect=fixed;shape=mxgraph.aws4.resourceIcon;resIcon=mxgraph.aws4.s3;" vertex="1" parent="IowvCCKO8djH2YIr_tiV-1">
          <mxGeometry x="611" y="50" width="78" height="78" as="geometry" />
        </mxCell>
        <mxCell id="IowvCCKO8djH2YIr_tiV-8" value="" style="sketch=0;points=[[0,0,0],[0.25,0,0],[0.5,0,0],[0.75,0,0],[1,0,0],[0,1,0],[0.25,1,0],[0.5,1,0],[0.75,1,0],[1,1,0],[0,0.25,0],[0,0.5,0],[0,0.75,0],[1,0.25,0],[1,0.5,0],[1,0.75,0]];outlineConnect=0;fontColor=#232F3E;gradientColor=#4D72F3;gradientDirection=north;fillColor=#3334B9;strokeColor=#ffffff;dashed=0;verticalLabelPosition=bottom;verticalAlign=top;align=center;html=1;fontSize=12;fontStyle=0;aspect=fixed;shape=mxgraph.aws4.resourceIcon;resIcon=mxgraph.aws4.dynamodb;" vertex="1" parent="IowvCCKO8djH2YIr_tiV-1">
          <mxGeometry x="611" y="450" width="78" height="78" as="geometry" />
        </mxCell>
        <mxCell id="IowvCCKO8djH2YIr_tiV-20" value="" style="edgeStyle=orthogonalEdgeStyle;rounded=0;orthogonalLoop=1;jettySize=auto;html=1;entryX=0;entryY=0.5;entryDx=0;entryDy=0;entryPerimeter=0;exitX=1;exitY=0.5;exitDx=0;exitDy=0;exitPerimeter=0;" edge="1" parent="IowvCCKO8djH2YIr_tiV-1" source="IowvCCKO8djH2YIr_tiV-7" target="IowvCCKO8djH2YIr_tiV-5">
          <mxGeometry relative="1" as="geometry">
            <mxPoint x="96" y="299" as="sourcePoint" />
            <mxPoint x="401" y="299" as="targetPoint" />
          </mxGeometry>
        </mxCell>
        <mxCell id="IowvCCKO8djH2YIr_tiV-21" value="" style="edgeStyle=orthogonalEdgeStyle;rounded=0;orthogonalLoop=1;jettySize=auto;html=1;exitX=0.5;exitY=1;exitDx=0;exitDy=0;exitPerimeter=0;entryX=0.5;entryY=0;entryDx=0;entryDy=0;entryPerimeter=0;" edge="1" parent="IowvCCKO8djH2YIr_tiV-1" source="IowvCCKO8djH2YIr_tiV-9" target="IowvCCKO8djH2YIr_tiV-5">
          <mxGeometry relative="1" as="geometry">
            <mxPoint x="621" y="299" as="sourcePoint" />
            <mxPoint x="479" y="299" as="targetPoint" />
          </mxGeometry>
        </mxCell>
        <mxCell id="IowvCCKO8djH2YIr_tiV-22" value="" style="edgeStyle=orthogonalEdgeStyle;rounded=0;orthogonalLoop=1;jettySize=auto;html=1;exitX=0.5;exitY=0;exitDx=0;exitDy=0;exitPerimeter=0;entryX=0.5;entryY=1;entryDx=0;entryDy=0;entryPerimeter=0;" edge="1" parent="IowvCCKO8djH2YIr_tiV-1" source="IowvCCKO8djH2YIr_tiV-8" target="IowvCCKO8djH2YIr_tiV-5">
          <mxGeometry relative="1" as="geometry">
            <mxPoint x="489" y="309" as="sourcePoint" />
            <mxPoint x="631" y="309" as="targetPoint" />
          </mxGeometry>
        </mxCell>
        <mxCell id="IowvCCKO8djH2YIr_tiV-26" value="" style="edgeStyle=orthogonalEdgeStyle;rounded=0;orthogonalLoop=1;jettySize=auto;html=1;" edge="1" parent="IowvCCKO8djH2YIr_tiV-1" source="IowvCCKO8djH2YIr_tiV-4" target="IowvCCKO8djH2YIr_tiV-6">
          <mxGeometry relative="1" as="geometry">
            <mxPoint x="539" y="569" as="sourcePoint" />
            <mxPoint x="791" y="569" as="targetPoint" />
          </mxGeometry>
        </mxCell>
        <mxCell id="IowvCCKO8djH2YIr_tiV-6" value="" style="sketch=0;outlineConnect=0;fontColor=#232F3E;gradientColor=none;fillColor=#D45B07;strokeColor=none;dashed=0;verticalLabelPosition=bottom;verticalAlign=top;align=center;html=1;fontSize=12;fontStyle=0;aspect=fixed;pointerEvents=1;shape=mxgraph.aws4.container_1;" vertex="1" parent="IowvCCKO8djH2YIr_tiV-1">
          <mxGeometry x="230" y="266" width="71.23" height="46" as="geometry" />
        </mxCell>
        <mxCell id="IowvCCKO8djH2YIr_tiV-16" style="edgeStyle=orthogonalEdgeStyle;rounded=0;orthogonalLoop=1;jettySize=auto;html=1;exitX=1;exitY=0.5;exitDx=0;exitDy=0;exitPerimeter=0;" edge="1" parent="1" source="IowvCCKO8djH2YIr_tiV-10" target="IowvCCKO8djH2YIr_tiV-4">
          <mxGeometry relative="1" as="geometry" />
        </mxCell>
        <mxCell id="IowvCCKO8djH2YIr_tiV-10" value="" style="verticalLabelPosition=bottom;html=1;verticalAlign=top;align=center;strokeColor=none;fillColor=#00BEF2;shape=mxgraph.azure.github_code;pointerEvents=1;" vertex="1" parent="1">
          <mxGeometry x="190" y="534" width="70" height="70" as="geometry" />
        </mxCell>
        <mxCell id="IowvCCKO8djH2YIr_tiV-14" style="edgeStyle=orthogonalEdgeStyle;rounded=0;orthogonalLoop=1;jettySize=auto;html=1;exitX=0.5;exitY=0;exitDx=0;exitDy=0;exitPerimeter=0;" edge="1" parent="1" source="IowvCCKO8djH2YIr_tiV-12" target="IowvCCKO8djH2YIr_tiV-10">
          <mxGeometry relative="1" as="geometry" />
        </mxCell>
        <mxCell id="IowvCCKO8djH2YIr_tiV-12" value="" style="verticalLabelPosition=bottom;html=1;verticalAlign=top;align=center;strokeColor=none;fillColor=#00BEF2;shape=mxgraph.azure.computer;pointerEvents=1;" vertex="1" parent="1">
          <mxGeometry x="191.67000000000002" y="760" width="66.67" height="60" as="geometry" />
        </mxCell>
        <mxCell id="IowvCCKO8djH2YIr_tiV-23" value="" style="shape=image;html=1;verticalAlign=top;verticalLabelPosition=bottom;labelBackgroundColor=#ffffff;imageAspect=0;aspect=fixed;image=https://cdn1.iconfinder.com/data/icons/unicons-line-vol-3/24/discord-128.png" vertex="1" parent="1">
          <mxGeometry x="1250" y="520" width="98" height="98" as="geometry" />
        </mxCell>
        <mxCell id="IowvCCKO8djH2YIr_tiV-24" value="" style="edgeStyle=orthogonalEdgeStyle;rounded=0;orthogonalLoop=1;jettySize=auto;html=1;" edge="1" parent="1">
          <mxGeometry relative="1" as="geometry">
            <mxPoint x="1090" y="570" as="sourcePoint" />
            <mxPoint x="1250" y="570" as="targetPoint" />
          </mxGeometry>
        </mxCell>
      </root>
    </mxGraphModel>
  </diagram>
</mxfile>
